<?xml version="1.0" encoding="UTF-8" standalone="no"?>
<svg
   xmlns:dc="http://purl.org/dc/elements/1.1/"
   xmlns:cc="http://creativecommons.org/ns#"
   xmlns:rdf="http://www.w3.org/1999/02/22-rdf-syntax-ns#"
   xmlns:svg="http://www.w3.org/2000/svg"
   xmlns="http://www.w3.org/2000/svg"
   xmlns:sodipodi="http://sodipodi.sourceforge.net/DTD/sodipodi-0.dtd"
   xmlns:inkscape="http://www.inkscape.org/namespaces/inkscape"
   width="119.0706mm"
   height="77.430359mm"
   viewBox="0 0 119.0706 77.430359"
   version="1.1"
   id="svg8"
   inkscape:version="1.0.2-2 (e86c870879, 2021-01-15)"
   sodipodi:docname="logo-1-primary.svg">
  <defs
     id="defs2">
    <clipPath
       clipPathUnits="userSpaceOnUse"
       id="clipPath849">
      <path
         d="M 0,1080 H 1262 V 0 H 0 Z"
         id="path847" />
    </clipPath>
  </defs>
  <sodipodi:namedview
     id="base"
     pagecolor="#ffffff"
     bordercolor="#666666"
     borderopacity="1.0"
     inkscape:pageopacity="0.0"
     inkscape:pageshadow="2"
     inkscape:zoom="1.4"
     inkscape:cx="257.37599"
     inkscape:cy="210.5474"
     inkscape:document-units="mm"
     inkscape:current-layer="layer1"
     inkscape:document-rotation="0"
     showgrid="false"
     inkscape:window-width="1431"
     inkscape:window-height="1033"
     inkscape:window-x="32"
     inkscape:window-y="0"
     inkscape:window-maximized="0"
     fit-margin-top="0"
     fit-margin-left="0"
     fit-margin-right="0"
     fit-margin-bottom="0" />
  <metadata
     id="metadata5">
    <rdf:RDF>
      <cc:Work
         rdf:about="">
        <dc:format>image/svg+xml</dc:format>
        <dc:type
           rdf:resource="http://purl.org/dc/dcmitype/StillImage" />
        <dc:title></dc:title>
      </cc:Work>
    </rdf:RDF>
  </metadata>
  <g
     inkscape:label="Layer 1"
     inkscape:groupmode="layer"
     id="layer1"
     transform="translate(-14.737018,-40.848796)">
    <g
       id="g845"
       clip-path="url(#clipPath849)"
       transform="matrix(0.35277777,0,0,-0.35277777,-148.33056,288.49315)"
       style="stroke:#008ee8;stroke-opacity:1">
      <g
         id="g851"
         transform="translate(590.4814,566.8898)"
         style="stroke:#008ee8;stroke-opacity:1">
        <path
           d="m 0,0 -28.31,32.352 -46.29,74.578 -15.374,-11.939 -35.3,38.063 8.294,-56.862 26.223,-32.808 36.999,-3.412 2.075,-3.309 C -60.441,28.34 -65.91,16.589 -65.91,3.553 c 0,-25.229 20.453,-45.682 45.682,-45.682 18.244,0 33.984,10.697 41.306,26.159 l 19.441,-9.124 -18.436,11.418 z"
           style="fill:none;stroke:#008ee8;stroke-width:6;stroke-linecap:round;stroke-linejoin:round;stroke-miterlimit:10;stroke-dasharray:none;stroke-opacity:1"
           id="path853" />
      </g>
      <g
         id="g855"
         transform="translate(761.4922,661.881)"
         style="stroke:#008ee8;stroke-opacity:1">
        <path
           d="m 0,0 -15.374,11.939 -46.29,-74.578 -28.31,-32.352 -22.082,-13.677 -18.436,-11.417 19.441,9.124 c 7.321,-15.462 23.061,-26.159 41.305,-26.159 25.23,0 45.682,20.452 45.682,45.682 0,13.036 -5.469,24.787 -14.227,33.11 l 2.075,3.309 36.999,3.412 26.224,32.808 8.294,56.862 z"
           style="fill:none;stroke:#008ee8;stroke-width:6;stroke-linecap:round;stroke-linejoin:round;stroke-miterlimit:10;stroke-dasharray:none;stroke-opacity:1"
           id="path857" />
      </g>
      <g
         id="g859"
         transform="translate(629.7109,528.6656)"
         style="stroke:#008ee8;stroke-opacity:1">
        <path
           d="m 0,0 -13.775,-21.665 13.476,-22.987 13.106,24.47 z"
           style="fill:none;stroke:#008ee8;stroke-width:6;stroke-linecap:round;stroke-linejoin:round;stroke-miterlimit:10;stroke-dasharray:none;stroke-opacity:1"
           id="path861" />
      </g>
      <g
         id="g863"
         transform="translate(473.501,643.0817)"
         style="stroke:#008ee8;stroke-opacity:1">
        <path
           d="M 0,0 53.994,-22.22 42.381,30.738"
           style="fill:none;stroke:#008ee8;stroke-width:6;stroke-linecap:round;stroke-linejoin:round;stroke-miterlimit:10;stroke-dasharray:none;stroke-opacity:1"
           id="path865" />
      </g>
      <g
         id="g867"
         transform="translate(612.564,553.2134)"
         style="stroke:#008ee8;stroke-opacity:1">
        <path
           d="m 0,0 -55.609,26.73 -18.157,23.609 -11.303,17.309 34.677,-21.62"
           style="fill:none;stroke:#008ee8;stroke-width:6;stroke-linecap:round;stroke-linejoin:round;stroke-miterlimit:10;stroke-dasharray:none;stroke-opacity:1"
           id="path869" />
      </g>
      <g
         id="g871"
         transform="translate(788.0008,643.0817)"
         style="stroke:#008ee8;stroke-opacity:1">
        <path
           d="m 0,0 -53.994,-22.22 11.613,52.958"
           style="fill:none;stroke:#008ee8;stroke-width:6;stroke-linecap:round;stroke-linejoin:round;stroke-miterlimit:10;stroke-dasharray:none;stroke-opacity:1"
           id="path873" />
      </g>
      <g
         id="g875"
         transform="translate(648.9377,553.2134)"
         style="stroke:#008ee8;stroke-opacity:1">
        <path
           d="M 0,0 55.609,26.73 73.766,50.339 85.069,67.648 50.392,46.028"
           style="fill:none;stroke:#008ee8;stroke-width:6;stroke-linecap:round;stroke-linejoin:round;stroke-miterlimit:10;stroke-dasharray:none;stroke-opacity:1"
           id="path877" />
      </g>
    </g>
  </g>
</svg>
